<svg width="101" height="31" viewBox="0 0 101 31" fill="none" xmlns="http://www.w3.org/2000/svg">
<g id="Group 1">
<g id="KWphKT">
<path id="Vector" d="M12.7035 0.0293233C21.2971 -0.540439 28.1843 7.34384 26.4318 15.7671C25.4479 20.5254 21.4816 26.5464 17.5461 29.3798C14.6713 31.4586 12.7035 31.5818 9.78259 29.4876C5.75481 26.6388 1.81926 20.664 0.789254 15.8287C-0.871055 8.08299 4.81704 0.552889 12.7035 0.0293233ZM12.9341 3.78667C6.07764 4.26404 2.04986 11.7633 5.41659 17.7997C8.81408 23.9131 17.4538 24.2211 21.374 18.4619C25.7707 12.0097 20.6976 3.24771 12.9341 3.78667Z" fill="black"/>
<path id="Vector_2" d="M12.9341 12.7027C14.9019 12.4717 16.7928 13.488 17.8228 15.1511C18.8528 16.8142 18.7298 18.3849 17.131 19.278C15.5168 20.1712 14.5329 18.4619 12.9187 18.9855C11.3045 19.509 10.9356 20.048 9.6596 18.9547C7.16914 16.8296 10.3821 13.0261 12.9495 12.7181L12.9341 12.7027Z" fill="black"/>
<path id="Vector_3" d="M10.8433 7.69801C12.3653 7.35923 13.2108 10.4698 11.9502 10.8702C10.6896 11.2706 9.44438 8.00599 10.8433 7.69801Z" fill="black"/>
<path id="Vector_4" d="M15.8396 7.71342C16.885 7.49783 17.1002 8.60656 16.9158 9.40731C16.7313 10.2081 15.8089 11.3938 15.0095 10.7316C14.1486 10.0079 14.8558 7.9136 15.8396 7.71342Z" fill="black"/>
<path id="Vector_5" d="M7.16915 10.4698C8.58348 10.2388 9.96707 12.7951 8.70647 13.3186C7.15377 13.95 5.52421 10.747 7.16915 10.4698Z" fill="black"/>
<path id="Vector_6" d="M19.683 10.4698C21.743 10.1773 20.3133 13.8884 18.5453 13.334C17.254 12.9337 18.4224 10.6392 19.683 10.4698Z" fill="black"/>
</g>
<path id="Vector_7" d="M34.7794 2.07739C36.286 2.07739 37.3775 2.38537 38.0693 3.01673C38.7611 3.64808 39.0993 4.51043 39.0993 5.63455C39.0993 6.75868 38.961 6.91267 38.6689 7.49783C38.3922 8.06759 37.9156 8.54496 37.2392 8.89914C36.5627 9.25331 35.6711 9.4381 34.5335 9.4381H33.3805V13.719H31.3051V2.07739H34.7641H34.7794ZM34.6411 3.80207H33.3959V7.69802H34.3336C35.1792 7.69802 35.8248 7.54403 36.286 7.23605C36.7472 6.92807 36.9778 6.4199 36.9778 5.71155C36.9778 5.00319 36.7933 4.58742 36.409 4.27944C36.0247 3.97146 35.4405 3.80207 34.6411 3.80207Z" fill="black"/>
<path id="Vector_8" d="M43.7113 4.71061C44.8489 4.71061 45.7098 4.95699 46.3094 5.46516C46.8936 5.95793 47.201 6.74327 47.201 7.77501V13.7036H45.7559L45.3562 12.4871H45.2947C44.9104 12.9645 44.5107 13.3186 44.0956 13.5342C43.6652 13.7498 43.0964 13.873 42.3738 13.873C41.6513 13.873 40.9287 13.6574 40.4061 13.2108C39.8834 12.7643 39.622 12.0713 39.622 11.1474C39.622 10.2234 39.9602 9.54589 40.6213 9.09932C41.2823 8.63735 42.297 8.39096 43.6498 8.32937L45.1718 8.28317V7.8366C45.1718 7.26684 45.0334 6.86647 44.7721 6.63548C44.4953 6.3891 44.1264 6.2813 43.6344 6.2813C43.1425 6.2813 42.7582 6.3429 42.3585 6.46609C41.9588 6.58928 41.5437 6.74327 41.144 6.92806L40.4983 5.49596C40.9288 5.26497 41.4207 5.08018 41.9895 4.94159C42.5429 4.803 43.1271 4.72601 43.742 4.72601L43.7113 4.71061ZM45.1718 9.53049L44.0956 9.56129C43.1886 9.59208 42.5737 9.74607 42.2201 10.0233C41.8665 10.3004 41.6974 10.67 41.6974 11.132C41.6974 11.594 41.8204 11.8557 42.0664 12.0405C42.3123 12.2253 42.6352 12.3023 43.0349 12.3023C43.6344 12.3023 44.1418 12.1329 44.5415 11.7941C44.9565 11.4554 45.1564 10.9472 45.1564 10.2696V9.51509L45.1718 9.53049Z" fill="black"/>
<path id="Vector_9" d="M56.0099 13.7036L55.0414 9.91547C54.9799 9.71528 54.9184 9.4689 54.8415 9.14552C54.7646 8.83754 54.6878 8.49876 54.6109 8.17538C54.534 7.8366 54.4572 7.52862 54.3957 7.23604C54.3342 6.94346 54.2881 6.72788 54.242 6.58929H54.1805C54.1497 6.72788 54.1036 6.94346 54.0267 7.23604C53.9652 7.52862 53.8884 7.8366 53.8115 8.17538C53.7346 8.51416 53.6578 8.83754 53.5809 9.14552C53.504 9.4535 53.4425 9.71528 53.3811 9.93086L52.351 13.7036H50.1066L47.6315 4.8646H49.6915L50.783 9.08392C50.8598 9.3765 50.9367 9.69988 50.9982 10.0541C51.0751 10.4082 51.1366 10.747 51.1827 11.0858C51.2442 11.4092 51.2749 11.6709 51.2903 11.8865H51.3518C51.3672 11.6863 51.4133 11.4246 51.4748 11.0858C51.5363 10.747 51.5978 10.4236 51.6593 10.1003C51.7207 9.77688 51.7822 9.54589 51.8284 9.3765L53.1043 4.8646H55.3488L56.5633 9.3765C56.6094 9.57669 56.6709 9.82307 56.7324 10.1465C56.8093 10.4544 56.8708 10.7778 56.9169 11.0858C56.9784 11.3938 57.0091 11.6556 57.0091 11.8711H57.0706C57.086 11.6863 57.1321 11.44 57.1782 11.1166C57.2397 10.7932 57.3012 10.4544 57.3781 10.0849C57.455 9.71528 57.5318 9.3919 57.6241 9.08392L58.7309 4.8646H60.7602L58.2544 13.7036H55.9791H56.0099Z" fill="black"/>
<path id="Vector_10" d="M67.9703 11.1474C67.9703 12.0405 67.6474 12.7181 67.0171 13.1801C66.3868 13.642 65.4798 13.873 64.2961 13.873C63.1123 13.873 63.1431 13.8268 62.7126 13.7498C62.2668 13.6574 61.8517 13.5342 61.4366 13.3494V11.6094C61.8671 11.8095 62.3437 11.9943 62.8817 12.1329C63.4044 12.2715 63.8964 12.3485 64.3729 12.3485C64.8495 12.3485 65.3414 12.2561 65.5874 12.0867C65.8334 11.9173 65.9564 11.6864 65.9564 11.3938C65.9564 11.1012 65.9102 11.0704 65.8026 10.9318C65.695 10.7932 65.5105 10.6392 65.2338 10.4852C64.9571 10.3158 64.5267 10.1157 63.9425 9.88467C63.3737 9.65369 62.9125 9.4227 62.5281 9.20712C62.1592 8.97613 61.8671 8.71435 61.6826 8.39097C61.4981 8.08299 61.3905 7.66722 61.3905 7.17445C61.3905 6.3891 61.698 5.78854 62.3283 5.37277C62.9586 4.9724 63.7887 4.75681 64.8187 4.75681C65.8488 4.75681 65.8795 4.81841 66.3561 4.9262C66.8326 5.03399 67.3246 5.20338 67.8165 5.41897L67.1709 6.92807C66.7558 6.75868 66.3561 6.60469 65.9717 6.4815C65.5874 6.35831 65.1877 6.29671 64.7726 6.29671C63.8656 6.29671 63.4198 6.55849 63.4198 7.06666C63.4198 7.57483 63.4813 7.40544 63.5889 7.54403C63.6965 7.66722 63.8964 7.80581 64.1884 7.9598C64.4805 8.11379 64.8802 8.28318 65.4183 8.48337C65.941 8.68355 66.3868 8.89914 66.7711 9.13012C67.1555 9.34571 67.4476 9.62289 67.6474 9.94627C67.8473 10.2696 67.9549 10.6854 67.9549 11.1936L67.9703 11.1474Z" fill="black"/>
<path id="Vector_11" d="M70.6298 1.47683C70.9373 1.47683 71.1986 1.55382 71.4292 1.70781C71.6598 1.8618 71.7674 2.13899 71.7674 2.53936C71.7674 2.93973 71.6598 3.21691 71.4292 3.3863C71.1986 3.55569 70.9373 3.63269 70.6298 3.63269C70.3223 3.63269 70.0456 3.55569 69.8304 3.3863C69.6152 3.21691 69.4922 2.93973 69.4922 2.53936C69.4922 2.13899 69.5998 1.8618 69.8304 1.70781C70.0456 1.55382 70.3223 1.47683 70.6298 1.47683ZM71.6598 4.88V13.7036H69.6152V4.88H71.6598Z" fill="black"/>
<path id="Vector_12" d="M77.3633 12.2253C77.6093 12.2253 77.8552 12.1945 78.1012 12.1483C78.3472 12.1021 78.5624 12.0405 78.7776 11.9789V13.5034C78.5624 13.6112 78.2857 13.7036 77.9321 13.7652C77.5785 13.8268 77.2249 13.8576 76.8406 13.8576C76.4563 13.8576 75.8721 13.7806 75.4724 13.6112C75.0727 13.4418 74.7498 13.1647 74.5039 12.7489C74.2579 12.3331 74.1503 11.7479 74.1503 11.0088V6.4199H72.9666V5.52676L74.2733 4.80301L74.919 2.92433H76.2103V4.8646H78.7161V6.4045H76.2103V10.978C76.2103 11.3938 76.3179 11.7017 76.5485 11.9019C76.7637 12.1021 77.0558 12.2099 77.3787 12.2099L77.3633 12.2253Z" fill="black"/>
<path id="Vector_13" d="M81.2527 1.47683C81.5602 1.47683 81.8215 1.55382 82.0521 1.70781C82.2827 1.8618 82.3903 2.13899 82.3903 2.53936C82.3903 2.93973 82.2827 3.21691 82.0521 3.3863C81.8215 3.55569 81.5602 3.63269 81.2527 3.63269C80.9452 3.63269 80.6685 3.55569 80.4533 3.3863C80.2381 3.21691 80.1151 2.93973 80.1151 2.53936C80.1151 2.13899 80.2227 1.8618 80.4533 1.70781C80.6685 1.55382 80.9452 1.47683 81.2527 1.47683ZM82.2827 4.88V13.7036H80.2381V4.88H82.2827Z" fill="black"/>
<path id="Vector_14" d="M86.6026 13.7036L83.2512 4.88H85.4189L87.1714 9.97707C87.2944 10.285 87.3866 10.6392 87.4789 11.0242C87.5711 11.4092 87.6172 11.7172 87.648 11.9789H87.7095C87.7402 11.7018 87.8017 11.3784 87.9093 11.0088C88.0169 10.6392 88.1092 10.3004 88.2168 9.97707L89.9693 4.88H92.137L88.7856 13.7036H86.6026Z" fill="black"/>
<path id="Vector_15" d="M96.672 4.71061C97.8558 4.71061 98.7935 5.06479 99.47 5.77314C100.162 6.48149 100.5 7.46703 100.5 8.71434V9.76147H94.6735C94.6889 10.5622 94.9195 11.1936 95.3346 11.6248C95.765 12.0713 96.3492 12.2869 97.0871 12.2869C97.825 12.2869 98.1632 12.2253 98.6091 12.1175C99.0703 12.0097 99.5315 11.8403 100.008 11.6248V13.2724C99.5776 13.4726 99.1318 13.6266 98.6552 13.7344C98.194 13.8268 97.6252 13.8884 96.9795 13.8884C96.3338 13.8884 95.3499 13.719 94.6889 13.3956C94.0278 13.0569 93.5052 12.5641 93.1362 11.9019C92.7672 11.2398 92.5828 10.3928 92.5828 9.3919C92.5828 7.8828 92.9517 6.72787 93.6896 5.94253C94.4276 5.15718 95.4114 4.75681 96.6413 4.75681L96.672 4.71061ZM96.672 6.23511C96.1186 6.23511 95.6728 6.4045 95.3346 6.75867C94.9964 7.11285 94.7965 7.63641 94.735 8.32937H98.5168C98.5168 7.72881 98.3477 7.22064 98.0556 6.82027C97.7635 6.4199 97.287 6.21971 96.672 6.21971V6.23511Z" fill="black"/>
<path id="Vector_16" d="M33.3651 27.5627H31.3205V15.9365H37.9002V17.6766H33.3651V21.0951H37.5928V22.8352H33.3651V27.5627Z" fill="black"/>
<path id="Vector_17" d="M47.3548 18.7391V27.5627H45.7406L45.4639 26.4232H45.3716C45.0949 26.8851 44.6952 27.2085 44.2032 27.4241C43.7113 27.6243 43.1732 27.7321 42.6198 27.7321C41.6359 27.7321 40.8673 27.4703 40.2984 26.9621C39.745 26.454 39.4683 25.6378 39.4683 24.4983V18.7391H41.5129V24.0979C41.5129 24.7601 41.6359 25.2528 41.8973 25.5762C42.1586 25.8996 42.5737 26.069 43.1271 26.069C43.9573 26.069 44.5107 25.8072 44.8335 25.2836C45.1564 24.7601 45.2947 24.0209 45.2947 23.0508V18.7391H47.3394H47.3548Z" fill="black"/>
<path id="Vector_18" d="M53.0736 26.0844C53.3196 26.0844 53.5655 26.0536 53.8115 26.0074C54.0575 25.9612 54.2727 25.8996 54.4879 25.838V27.3625C54.2727 27.4703 53.996 27.5627 53.6424 27.6243C53.2888 27.6859 52.9352 27.7167 52.5509 27.7167C52.1666 27.7167 51.5824 27.6397 51.1827 27.4703C50.783 27.3009 50.4601 27.0237 50.2142 26.608C49.9682 26.1922 49.8606 25.607 49.8606 24.8679V20.279H48.6768V19.3858L49.9836 18.6621L50.6293 16.7834H51.9206V18.7237H54.4264V20.2636H51.9206V24.8371C51.9206 25.2529 52.0282 25.5608 52.2588 25.761C52.474 25.9612 52.7661 26.069 53.089 26.069L53.0736 26.0844Z" fill="black"/>
<path id="Vector_19" d="M63.758 18.7391V27.5627H62.1438L61.8671 26.4232H61.7748C61.4981 26.8851 61.0984 27.2085 60.6065 27.4241C60.1145 27.6243 59.5765 27.7321 59.023 27.7321C58.0391 27.7321 57.2705 27.4703 56.7017 26.9621C56.1482 26.454 55.8715 25.6378 55.8715 24.4983V18.7391H57.9162V24.0979C57.9162 24.7601 58.0391 25.2528 58.3005 25.5762C58.5618 25.8996 58.9769 26.069 59.5303 26.069C60.3605 26.069 60.9139 25.8072 61.2368 25.2836C61.5596 24.7601 61.698 24.0209 61.698 23.0508V18.7391H63.7426H63.758Z" fill="black"/>
<path id="Vector_20" d="M70.6606 18.5697C70.7989 18.5697 70.9527 18.5697 71.1371 18.6005C71.3062 18.6159 71.4446 18.6313 71.5676 18.6621L71.3831 20.5716C71.2755 20.5562 71.1371 20.5254 70.9834 20.51C70.8297 20.4946 70.6913 20.4792 70.5837 20.4792C70.1533 20.4792 69.7382 20.5716 69.3692 20.741C68.9849 20.9257 68.6774 21.1875 68.4468 21.5571C68.2162 21.9267 68.0932 22.404 68.0932 22.9738V27.5473H66.0486V18.7237H67.632L67.9241 20.2482H68.0164C68.2777 19.7862 68.6313 19.3858 69.0925 19.0471C69.5537 18.7083 70.0764 18.5543 70.6759 18.5543L70.6606 18.5697Z" fill="black"/>
<path id="Vector_21" d="M76.0873 18.5697C77.271 18.5697 78.2088 18.9239 78.8852 19.6322C79.577 20.3406 79.9152 21.3261 79.9152 22.5734V23.6206H74.0888C74.1042 24.4213 74.3348 25.0527 74.7498 25.4838C75.1803 25.9304 75.7645 26.146 76.5024 26.146C77.2403 26.146 77.5785 26.0844 78.0243 25.9766C78.4855 25.8688 78.9467 25.6994 79.4233 25.4838V27.1315C78.9929 27.3317 78.547 27.4857 78.0705 27.5935C77.6093 27.6859 77.0405 27.7475 76.3948 27.7475C75.7491 27.7475 74.7652 27.5781 74.1042 27.2547C73.4431 26.9159 72.9204 26.4232 72.5515 25.761C72.1825 25.0989 71.998 24.2519 71.998 23.251C71.998 21.7419 72.367 20.587 73.1049 19.8016C73.8428 19.0163 74.8267 18.6159 76.0566 18.6159L76.0873 18.5697ZM76.0873 20.0942C75.5339 20.0942 75.088 20.2636 74.7498 20.6178C74.4116 20.9719 74.2118 21.4955 74.1503 22.1885H77.9321C77.9321 21.5879 77.763 21.0797 77.4709 20.6794C77.1788 20.279 76.7022 20.0788 76.0873 20.0788V20.0942Z" fill="black"/>
<path id="Vector_22" d="M87.6634 25.0065C87.6634 25.8996 87.3405 26.5772 86.7102 27.0391C86.0799 27.5011 85.1729 27.7321 83.9892 27.7321C82.8054 27.7321 82.8362 27.6859 82.4057 27.6089C81.9599 27.5165 81.5448 27.3933 81.1297 27.2085V25.4684C81.5602 25.6686 82.0368 25.8534 82.5748 25.992C83.0975 26.1306 83.5894 26.2076 84.066 26.2076C84.5426 26.2076 85.0345 26.1152 85.2805 25.9458C85.5265 25.7764 85.6495 25.5454 85.6495 25.2528C85.6495 24.9603 85.6033 24.9295 85.4957 24.7909C85.3881 24.6523 85.2036 24.4983 84.9269 24.3443C84.6502 24.1749 84.2198 23.9747 83.6356 23.7437C83.0668 23.5128 82.6056 23.2818 82.2212 23.0662C81.8523 22.8352 81.5602 22.5734 81.3757 22.25C81.1912 21.9421 81.0836 21.5263 81.0836 21.0335C81.0836 20.2482 81.3911 19.6476 82.0214 19.2318C82.6517 18.8315 83.4818 18.6159 84.5118 18.6159C85.5419 18.6159 85.5726 18.6775 86.0492 18.7853C86.5257 18.8931 87.0177 19.0625 87.5096 19.278L86.8639 20.7871C86.4489 20.6177 86.0492 20.4638 85.6648 20.3406C85.2805 20.2174 84.8808 20.1558 84.4657 20.1558C83.5587 20.1558 83.1129 20.4176 83.1129 20.9257C83.1129 21.4339 83.1744 21.2645 83.282 21.4031C83.3896 21.5263 83.5895 21.6649 83.8815 21.8189C84.1736 21.9729 84.5733 22.1422 85.1114 22.3424C85.6341 22.5426 86.0799 22.7582 86.4642 22.9892C86.8486 23.2048 87.1407 23.482 87.3405 23.8053C87.5404 24.1287 87.648 24.5445 87.648 25.0527L87.6634 25.0065Z" fill="black"/>
</g>
</svg>
