<?xml version="1.0" standalone="no"?><!DOCTYPE svg PUBLIC "-//W3C//DTD SVG 1.1//EN" "http://www.w3.org/Graphics/SVG/1.1/DTD/svg11.dtd"><svg t="1743700736947" class="icon" viewBox="0 0 1024 1024" version="1.1" xmlns="http://www.w3.org/2000/svg" p-id="1893" xmlns:xlink="http://www.w3.org/1999/xlink" width="200" height="200"><path d="M639.552 32.064h-256a96.128 96.128 0 0 0-96 96v360.768h-89.6a64.704 64.704 0 0 0-49.536 106.432l314.368 373.952a63.424 63.424 0 0 0 48.704 22.784h0.064a63.616 63.616 0 0 0 48.832-22.72l314.88-374.656a64.384 64.384 0 0 0-49.28-105.792h-90.432V128.064a96.128 96.128 0 0 0-96-96z m186.752 521.408l-314.496 374.592-313.856-375.232h121.6a32 32 0 0 0 32-32V128.064a32 32 0 0 1 32-32h256a32 32 0 0 1 32 32v392.768a32 32 0 0 0 32 32z" p-id="1894"></path></svg>